ModelForces
version=1
nRows=6
nColumns=52
inDegrees=no

This file contains the forces exerted on a model during a simulation.

A force is a generalized force, meaning that it can be either a force (N) or a torque (Nm).

Units are S.I. units (second, meters, Newtons, ...)
Angles are in degrees.

endheader
time	contactForce_femur_lat_meniscii_l.femur_lat_l.force.X	contactForce_femur_lat_meniscii_l.femur_lat_l.force.Y	contactForce_femur_lat_meniscii_l.femur_lat_l.force.Z	contactForce_femur_lat_meniscii_l.femur_lat_l.torque.X	contactForce_femur_lat_meniscii_l.femur_lat_l.torque.Y	contactForce_femur_lat_meniscii_l.femur_lat_l.torque.Z	contactForce_femur_lat_meniscii_l.meniscus_lat_l.force.X	contactForce_femur_lat_meniscii_l.meniscus_lat_l.force.Y	contactForce_femur_lat_meniscii_l.meniscus_lat_l.force.Z	contactForce_femur_lat_meniscii_l.meniscus_lat_l.torque.X	contactForce_femur_lat_meniscii_l.meniscus_lat_l.torque.Y	contactForce_femur_lat_meniscii_l.meniscus_lat_l.torque.Z	contactForce_femur_med_meniscii_l.femur_med_l.force.X	contactForce_femur_med_meniscii_l.femur_med_l.force.Y	contactForce_femur_med_meniscii_l.femur_med_l.force.Z	contactForce_femur_med_meniscii_l.femur_med_l.torque.X	contactForce_femur_med_meniscii_l.femur_med_l.torque.Y	contactForce_femur_med_meniscii_l.femur_med_l.torque.Z	contactForce_femur_med_meniscii_l.meniscus_med_l.force.X	contactForce_femur_med_meniscii_l.meniscus_med_l.force.Y	contactForce_femur_med_meniscii_l.meniscus_med_l.force.Z	contactForce_femur_med_meniscii_l.meniscus_med_l.torque.X	contactForce_femur_med_meniscii_l.meniscus_med_l.torque.Y	contactForce_femur_med_meniscii_l.meniscus_med_l.torque.Z	contactForce_femur_lat_meniscii_r.femur_lat_r.force.X	contactForce_femur_lat_meniscii_r.femur_lat_r.force.Y	contactForce_femur_lat_meniscii_r.femur_lat_r.force.Z	contactForce_femur_lat_meniscii_r.femur_lat_r.torque.X	contactForce_femur_lat_meniscii_r.femur_lat_r.torque.Y	contactForce_femur_lat_meniscii_r.femur_lat_r.torque.Z	contactForce_femur_lat_meniscii_r.meniscus_lat_r.force.X	contactForce_femur_lat_meniscii_r.meniscus_lat_r.force.Y	contactForce_femur_lat_meniscii_r.meniscus_lat_r.force.Z	contactForce_femur_lat_meniscii_r.meniscus_lat_r.torque.X	contactForce_femur_lat_meniscii_r.meniscus_lat_r.torque.Y	contactForce_femur_lat_meniscii_r.meniscus_lat_r.torque.Z	contactForce_femur_med_meniscii_r.femur_med_r.force.X	contactForce_femur_med_meniscii_r.femur_med_r.force.Y	contactForce_femur_med_meniscii_r.femur_med_r.force.Z	contactForce_femur_med_meniscii_r.femur_med_r.torque.X	contactForce_femur_med_meniscii_r.femur_med_r.torque.Y	contactForce_femur_med_meniscii_r.femur_med_r.torque.Z	contactForce_femur_med_meniscii_r.meniscus_med_r.force.X	contactForce_femur_med_meniscii_r.meniscus_med_r.force.Y	contactForce_femur_med_meniscii_r.meniscus_med_r.force.Z	contactForce_femur_med_meniscii_r.meniscus_med_r.torque.X	contactForce_femur_med_meniscii_r.meniscus_med_r.torque.Y	contactForce_femur_med_meniscii_r.meniscus_med_r.torque.Z	ground_prescribedForce_fx	ground_prescribedForce_fy	ground_prescribedForce_fz
      0.27496481	      0.00000000	      0.00000000	      0.00000000	      0.00000000	      0.00000000	      0.00000000	      0.00000000	      0.00000000	      0.00000000	      0.00000000	      0.00000000	      0.00000000	      0.00000000	      0.00000000	      0.00000000	      0.00000000	      0.00000000	      0.00000000	      0.00000000	      0.00000000	      0.00000000	      0.00000000	      0.00000000	      0.00000000	     33.65174327	    -27.68961580	    -10.94197107	      4.96031711	      0.80628935	     13.18961281	    -33.65174327	     27.68961580	     10.94197107	     -0.56636743	     -0.36140928	     -0.80194450	     89.98536900	    -25.66713586	      3.64926689	     -1.91991914	     -1.53591082	     36.18945643	    -89.98536900	     25.66713586	     -3.64926689	      0.49296966	      1.49912491	     -1.26178737	     91.65493573	    -36.66197429	      0.00000000
      0.28051877	      0.00000000	      0.00000000	      0.00000000	      0.00000000	      0.00000000	      0.00000000	      0.00000000	      0.00000000	      0.00000000	      0.00000000	      0.00000000	      0.00000000	      0.00000000	      0.00000000	      0.00000000	      0.00000000	      0.00000000	      0.00000000	      0.00000000	      0.00000000	      0.00000000	      0.00000000	      0.00000000	      0.00000000	     29.62470669	    -27.98787378	    -12.24650599	      5.47567500	      0.70787329	     11.60140955	    -29.62470669	     27.98787378	     12.24650599	     -0.56370068	     -0.22074482	     -0.83245156	     78.57095540	    -18.49378799	      6.34469136	     -2.86762755	     -1.29930449	     31.55465123	    -78.57095540	     18.49378799	     -6.34469136	      0.35655162	      1.14294209	     -0.91393273	     93.50625524	    -37.40250209	      0.00000000
      0.28793861	      0.00000000	      0.00000000	      0.00000000	      0.00000000	      0.00000000	      0.00000000	      0.00000000	      0.00000000	      0.00000000	      0.00000000	      0.00000000	      0.00000000	      0.00000000	      0.00000000	      0.00000000	      0.00000000	      0.00000000	      0.00000000	      0.00000000	      0.00000000	      0.00000000	      0.00000000	      0.00000000	      0.00000000	     26.02480295	    -24.23845804	    -10.05509084	      4.52554932	      0.62411945	     10.17709233	    -26.02480295	     24.23845804	     10.05509084	     -0.49407265	     -0.22501237	     -0.70481134	     61.89799258	    -12.37334211	      7.44649711	     -3.20026008	     -0.99173186	     24.83689803	    -61.89799258	     12.37334211	     -7.44649711	      0.24354604	      0.77346144	     -0.62230072	     95.97953501	    -38.39181401	      0.00000000
      0.29535844	      0.00000000	      0.00000000	      0.00000000	      0.00000000	      0.00000000	      0.00000000	      0.00000000	      0.00000000	      0.00000000	      0.00000000	      0.00000000	      0.00000000	      0.00000000	      0.00000000	      0.00000000	      0.00000000	      0.00000000	      0.00000000	      0.00000000	      0.00000000	      0.00000000	      0.00000000	      0.00000000	      0.00000000	     27.10251295	    -21.04060951	     -7.78616799	      3.55106260	      0.66547406	     10.56671650	    -27.10251295	     21.04060951	      7.78616799	     -0.42864703	     -0.35088425	     -0.54816217	     52.55313088	    -12.17931920	      7.08894621	     -3.04895838	     -0.83143100	     21.10349133	    -52.55313088	     12.17931920	     -7.08894621	      0.23485646	      0.61577662	     -0.61196289	     98.45281479	    -39.38112592	      0.00000000
      0.30277828	      0.00000000	      0.00000000	      0.00000000	      0.00000000	      0.00000000	      0.00000000	      0.00000000	      0.00000000	      0.00000000	      0.00000000	      0.00000000	      0.00000000	      0.00000000	      0.00000000	      0.00000000	      0.00000000	      0.00000000	      0.00000000	      0.00000000	      0.00000000	      0.00000000	      0.00000000	      0.00000000	      0.00000000	     33.63780474	    -22.68501023	     -7.26138460	      3.38538440	      0.83691728	     13.08305768	    -33.63780474	     22.68501023	      7.26138460	     -0.47134319	     -0.53555327	     -0.52546592	     55.47291946	    -13.86066173	      7.16623939	     -3.10536443	     -0.87168468	     22.28184595	    -55.47291946	     13.86066173	     -7.16623939	      0.26187921	      0.65346083	     -0.69287975	    100.92609457	    -40.37043783	      0.00000000
      0.31132559	      0.00000000	      0.00000000	      0.00000000	      0.00000000	      0.00000000	      0.00000000	      0.00000000	      0.00000000	      0.00000000	      0.00000000	      0.00000000	      0.00000000	      0.00000000	      0.00000000	      0.00000000	      0.00000000	      0.00000000	      0.00000000	      0.00000000	      0.00000000	      0.00000000	      0.00000000	      0.00000000	      0.00000000	     43.69339267	    -28.54497421	     -8.06079787	      3.84681928	      1.10173656	     16.97728354	    -43.69339267	     28.54497421	      8.06079787	     -0.60977434	     -0.76066015	     -0.63876960	     61.75771836	    -15.98947571	      7.85728735	     -3.41071311	     -0.95451633	     24.80106781	    -61.75771836	     15.98947571	     -7.85728735	      0.29302307	      0.71167019	     -0.79043505	    103.77519656	    -41.51007863	      0.00000000
